<svg xmlns="http://www.w3.org/2000/svg" width="16" height="16" fill="none" viewBox="0 0 16 16"><path fill="#000" d="M5.076 6.674a1.5 1.5 0 1 0 0-3 1.5 1.5 0 0 0 0 3z"/><path fill="#000" d="M11.83 0H4.17A4.175 4.175 0 0 0 0 4.172v7.656c.002.523.103 1.04.299 1.526l-.004.003.006.006A4.17 4.17 0 0 0 4.171 16h7.658A4.176 4.176 0 0 0 16 11.828V4.172A4.175 4.175 0 0 0 11.83 0zM1.777 11.828V4.172A2.396 2.396 0 0 1 4.17 1.778h7.658a2.396 2.396 0 0 1 2.393 2.394v4.854l-1.615-1.28a4.856 4.856 0 0 0-6.282.194l-4.53 4.068c-.004-.059-.017-.118-.017-.18zm10.051 2.394H4.171a2.37 2.37 0 0 1-1.539-.576l4.88-4.385a3.081 3.081 0 0 1 3.989-.122l2.721 2.157v.533a2.396 2.396 0 0 1-2.393 2.393z"/></svg>