<svg xmlns="http://www.w3.org/2000/svg" width="16" height="16" fill="none" viewBox="0 0 16 16"><path fill="#000" d="M11.078 0a1.141 1.141 0 0 1 1.142 1.143v.228h2.627A1.141 1.141 0 0 1 16 2.514v10.972A2.515 2.515 0 0 1 13.488 16H2.5A2.512 2.512 0 0 1 0 13.509V2.514a1.143 1.143 0 0 1 1.142-1.143h2.615v-.228a1.143 1.143 0 1 1 2.284 0v.228h3.895v-.228A1.143 1.143 0 0 1 11.078 0zm2.627 8H2.272v5.486a.23.23 0 0 0 .228.228h10.986a.229.229 0 0 0 .217-.205V8zM11.99 9.143a.57.57 0 0 1 .572.571V12a.572.572 0 0 1-.572.571H9.707a.571.571 0 0 1-.57-.571V9.714a.572.572 0 0 1 .57-.571h2.284zM3.746 3.657H2.284v2.057h11.42V3.657h-1.473v.229a1.144 1.144 0 0 1-1.95.808 1.143 1.143 0 0 1-.334-.808v-.229H6.03v.229a1.143 1.143 0 1 1-2.284 0v-.229z"/></svg>