<svg xmlns="http://www.w3.org/2000/svg" width="16" height="16" fill="none" viewBox="0 0 16 16"><path fill="#000" d="M12.498 15.985a.723.723 0 0 1-.351-.09l-4.132-2.093-4.131 2.123a.779.779 0 0 1-.764-.06.733.733 0 0 1-.305-.748l.764-4.485L.226 7.447a.744.744 0 0 1-.188-.765.747.747 0 0 1 .235-.338.772.772 0 0 1 .38-.168l4.613-.657 2.062-4.097a.753.753 0 0 1 .282-.308.776.776 0 0 1 1.093.308l2.061 4.097 4.582.657c.14.02.273.078.381.168a.733.733 0 0 1 .046 1.104L12.43 10.64l.764 4.485a.733.733 0 0 1-.172.613.762.762 0 0 1-.592.262l.069-.015zm-4.483-3.738c.125.002.247.03.36.082l3.107 1.607-.595-3.394a.733.733 0 0 1 .221-.665l2.52-2.4-3.482-.538a.774.774 0 0 1-.603-.404L8.015 3.44 6.488 6.535a.752.752 0 0 1-.573.404l-3.482.5 2.528 2.4a.746.746 0 0 1 .221.666L4.587 13.9l3.108-1.607a.872.872 0 0 1 .32-.045z"/></svg>