<svg xmlns="http://www.w3.org/2000/svg" width="16" height="16" fill="none" viewBox="0 0 16 16"><path fill="#000" d="M11.83 0H4.17A4.175 4.175 0 0 0 0 4.172v7.656A4.175 4.175 0 0 0 4.17 16h7.66A4.176 4.176 0 0 0 16 11.828V4.172A4.175 4.175 0 0 0 11.83 0zM4.17 1.778h7.66a2.396 2.396 0 0 1 2.392 2.394v7.375a10.32 10.32 0 0 0-2.628-1.395 3.88 3.88 0 0 0 .296-1.478V7.481a3.89 3.89 0 0 0-7.779 0v1.193c0 .508.101 1.01.296 1.478a10.34 10.34 0 0 0-2.63 1.395V4.172a2.396 2.396 0 0 1 2.394-2.394zm5.94 6.898a2.11 2.11 0 1 1-4.22 0V7.48a2.11 2.11 0 0 1 4.22 0v1.196zm1.72 5.546H4.17a2.378 2.378 0 0 1-1.765-.791.492.492 0 0 1 .178-.281 8.603 8.603 0 0 1 2.96-1.487 3.804 3.804 0 0 0 4.911.003 8.556 8.556 0 0 1 2.963 1.484c.09.07.153.17.178.28a2.38 2.38 0 0 1-1.766.792z"/></svg>