<svg width="16" height="16" viewBox="0 0 16 16" fill="none" xmlns="http://www.w3.org/2000/svg">
<path d="M15.7619 14.6589L13.0757 11.9732C13.8093 11.0643 14.3159 9.99362 14.5534 8.84991C14.791 7.70621 14.7527 6.52236 14.4418 5.39639C14.1308 4.27042 13.5562 3.23472 12.7654 2.37505C11.9746 1.51538 10.9904 0.856477 9.89426 0.452888C8.79816 0.0492978 7.6217 -0.0873627 6.46229 0.0542213C5.30287 0.195805 4.19386 0.611561 3.22708 1.26706C2.26029 1.92257 1.46355 2.79896 0.902818 3.82367C0.342087 4.84838 0.0335007 5.99194 0.00260873 7.15965C-0.0347984 8.56395 0.330757 9.94959 1.05603 11.1526C1.78131 12.3557 2.83595 13.3258 4.09522 13.9483C5.35448 14.5708 6.76566 14.8195 8.16183 14.6651C9.558 14.5107 10.8807 13.9596 11.9736 13.077L14.659 15.7619C14.731 15.8364 14.817 15.8958 14.9122 15.9367C15.0073 15.9776 15.1097 15.9991 15.2133 16C15.3168 16.0009 15.4195 15.9811 15.5154 15.9419C15.6112 15.9027 15.6983 15.8448 15.7716 15.7715C15.8448 15.6983 15.9027 15.6112 15.9419 15.5153C15.9811 15.4195 16.0009 15.3168 16 15.2132C15.9991 15.1096 15.9776 15.0073 15.9367 14.9121C15.8958 14.8169 15.8364 14.7309 15.7619 14.6589ZM3.25664 11.453C2.30854 10.5051 1.71841 9.25782 1.58679 7.92361C1.45517 6.58939 1.79021 5.25082 2.53483 4.13596C3.27944 3.0211 4.38755 2.19894 5.67034 1.80957C6.95314 1.4202 8.33125 1.48771 9.56985 2.00059C10.8085 2.51348 11.8309 3.44 12.463 4.6223C13.0951 5.8046 13.2978 7.16952 13.0364 8.48448C12.775 9.79944 12.0658 10.9831 11.0296 11.8337C9.99345 12.6844 8.6944 13.1494 7.35382 13.1495C6.59259 13.1516 5.8385 13.0027 5.13522 12.7113C4.43193 12.42 3.79342 11.992 3.25664 11.4522V11.453Z" fill="black"/>
</svg>
