<svg width="16" height="16" viewBox="0 0 16 16" fill="none" xmlns="http://www.w3.org/2000/svg">
<path d="M8.8 2.73106V12C8.8 12.2121 8.71571 12.4156 8.56569 12.5656C8.41566 12.7157 8.21217 12.8 8 12.8C7.78783 12.8 7.58434 12.7157 7.43431 12.5656C7.28429 12.4156 7.2 12.2121 7.2 12V2.73106L6.1656 3.76547C6.01472 3.9112 5.81264 3.99183 5.60288 3.99001C5.39312 3.98819 5.19247 3.90405 5.04415 3.75572C4.89582 3.6074 4.81168 3.40674 4.80986 3.19698C4.80804 2.98722 4.88867 2.78514 5.0344 2.63426L7.4344 0.234232C7.58442 0.0842531 7.78787 0 8 0C8.21213 0 8.41558 0.0842531 8.5656 0.234232L10.9656 2.63426C11.042 2.70806 11.103 2.79633 11.1449 2.89394C11.1868 2.99154 11.2089 3.09652 11.2098 3.20274C11.2107 3.30897 11.1905 3.41431 11.1503 3.51263C11.11 3.61095 11.0506 3.70027 10.9755 3.77539C10.9004 3.8505 10.8111 3.9099 10.7128 3.95013C10.6144 3.99035 10.5091 4.0106 10.4029 4.00967C10.2967 4.00875 10.1917 3.98668 10.0941 3.94475C9.99647 3.90282 9.9082 3.84188 9.8344 3.76547L8.8 2.73106ZM12 7.19991C11.7878 7.19991 11.5843 7.11562 11.4343 6.96559C11.2843 6.81556 11.2 6.61207 11.2 6.3999C11.2 6.18772 11.2843 5.98424 11.4343 5.83421C11.5843 5.68418 11.7878 5.59989 12 5.59989H14.4C14.8243 5.59989 15.2313 5.76846 15.5314 6.06852C15.8314 6.36858 16 6.77556 16 7.19991V14.4C16 14.8243 15.8314 15.2313 15.5314 15.5314C15.2313 15.8314 14.8243 16 14.4 16H1.6C1.17565 16 0.768687 15.8314 0.468629 15.5314C0.168571 15.2313 0 14.8243 0 14.4V7.19991C0 6.77556 0.168571 6.36858 0.468629 6.06852C0.768687 5.76846 1.17565 5.59989 1.6 5.59989H4C4.21217 5.59989 4.41566 5.68418 4.56569 5.83421C4.71571 5.98424 4.8 6.18772 4.8 6.3999C4.8 6.61207 4.71571 6.81556 4.56569 6.96559C4.41566 7.11562 4.21217 7.19991 4 7.19991H1.6V14.4H14.4V7.19991H12Z" fill="black"/>
</svg>
