<svg xmlns="http://www.w3.org/2000/svg" width="16" height="16" fill="none" viewBox="0 0 16 16"><path fill="#000" d="M11.83 16H4.17A4.177 4.177 0 0 1 0 11.828V4.172A4.175 4.175 0 0 1 4.17 0h7.66A4.175 4.175 0 0 1 16 4.172v7.656A4.175 4.175 0 0 1 11.83 16zM4.17 1.778a2.396 2.396 0 0 0-2.392 2.394v7.656a2.396 2.396 0 0 0 2.393 2.394h7.658a2.396 2.396 0 0 0 2.393-2.394V4.172a2.396 2.396 0 0 0-2.393-2.394H4.171z"/><path fill="#000" d="M11.969 6.99a.647.647 0 0 0-.189-.294.603.603 0 0 0-.308-.146l-2.018-.308-.903-1.915a.657.657 0 0 0-.235-.24.62.62 0 0 0-.634 0 .657.657 0 0 0-.234.24l-.903 1.917-2.018.308a.603.603 0 0 0-.308.145.647.647 0 0 0-.189.293.674.674 0 0 0 .156.66l1.46 1.49-.344 2.105a.673.673 0 0 0 .036.352.641.641 0 0 0 .208.279.599.599 0 0 0 .648.05L8 10.928l1.806.995a.59.59 0 0 0 .65-.047.637.637 0 0 0 .207-.28.67.67 0 0 0 .035-.353l-.345-2.105 1.462-1.49a.673.673 0 0 0 .156-.66h-.001z"/></svg>