<svg xmlns="http://www.w3.org/2000/svg" width="16" height="16" fill="none" viewBox="0 0 16 16"><path fill="#000" d="M.014 14.955a.89.89 0 0 0 1.031 1.031l4.969-.877a.898.898 0 0 0 .474-.248l8.77-8.768a2.549 2.549 0 0 0 0-3.595L13.504.744A2.548 2.548 0 0 0 9.908.74l-8.77 8.771a.885.885 0 0 0-.246.474l-.877 4.969H.014zm6.68-2.815L3.86 9.306l4.923-4.924 2.835 2.836-4.924 4.922zM14 4.835l-1.125 1.126-2.835-2.835L11.165 2a.767.767 0 0 1 1.081 0L14 3.754a.764.764 0 0 1 0 1.081zm-12.013 9.18l.607-3.443.01-.01 2.835 2.836-.01.01-3.442.607z"/></svg>