<svg xmlns="http://www.w3.org/2000/svg" width="16" height="16" fill="none" viewBox="0 0 16 16"><path fill="#000" d="M13.25 16a.714.714 0 0 1-.436-.149L8 12.183l-4.814 3.668a.711.711 0 0 1-.78.06.772.772 0 0 1-.296-.294A.84.84 0 0 1 2 15.2V2.4c0-.636.238-1.246.66-1.696C3.08.254 3.653 0 4.25 0h7.5a2.18 2.18 0 0 1 1.59.704c.422.45.66 1.06.66 1.696v12.8a.828.828 0 0 1-.22.566.727.727 0 0 1-.53.234zM8 10.4c.156 0 .309.052.436.15l4.064 3.095V2.4a.828.828 0 0 0-.22-.566.727.727 0 0 0-.53-.234h-7.5a.727.727 0 0 0-.53.234.828.828 0 0 0-.22.566v11.245l4.064-3.095A.718.718 0 0 1 8 10.4z"/></svg>