<svg xmlns="http://www.w3.org/2000/svg" width="16" height="16" fill="none" viewBox="0 0 16 16"><path fill="#000" d="M4.444 15a.943.943 0 0 1-.34-.063.895.895 0 0 1-.288-.18.83.83 0 0 1-.193-.27.785.785 0 0 1-.067-.32V11.45c-1-.195-1.9-.705-2.547-1.446A4.02 4.02 0 0 1 0 7.381v-2.22C.001 4.056.47 3 1.303 2.22A4.608 4.608 0 0 1 4.444 1h7.112a4.608 4.608 0 0 1 3.14 1.22C15.53 3 16 4.057 16 5.16v2.22a4.039 4.039 0 0 1-1.303 2.94 4.609 4.609 0 0 1-3.141 1.22h-2.46L5.021 14.8a.925.925 0 0 1-.578.199V15zm0-12.335a2.764 2.764 0 0 0-1.884.732 2.421 2.421 0 0 0-.782 1.765V7.38c.002.655.279 1.283.77 1.75.49.466 1.156.734 1.855.747.24.001.469.088.641.243a.856.856 0 0 1 .29.589v1.653l2.856-2.286a.92.92 0 0 1 .577-.2h2.789c.707 0 1.384-.264 1.884-.731.5-.468.781-1.103.782-1.765V5.162c0-.662-.281-1.297-.781-1.765a2.766 2.766 0 0 0-1.885-.733H4.444v.001z"/></svg>