<svg xmlns="http://www.w3.org/2000/svg" width="16" height="16" fill="none" viewBox="0 0 16 16"><path fill="#000" d="M10.91 1c.152 0 .3.049.424.14a.753.753 0 0 1 .266.37l.56 1.74h1.658c.579 0 1.134.237 1.543.659.41.422.639.994.639 1.591v8.25c0 .597-.23 1.169-.639 1.591a2.15 2.15 0 0 1-1.543.659H2.182a2.149 2.149 0 0 1-1.543-.659A2.286 2.286 0 0 1 0 13.75V5.5c0-.597.23-1.169.639-1.591a2.15 2.15 0 0 1 1.543-.659H3.84l.56-1.74a.749.749 0 0 1 .266-.37A.712.712 0 0 1 5.09 1h5.818zm-.524 1.5H5.615L5.09 4.24a.748.748 0 0 1-.28.381.711.711 0 0 1-.447.129H2.182a.716.716 0 0 0-.514.22.762.762 0 0 0-.213.53v8.25c0 .199.076.39.213.53.136.141.32.22.514.22h11.636a.716.716 0 0 0 .514-.22.762.762 0 0 0 .213-.53V5.5a.762.762 0 0 0-.213-.53.716.716 0 0 0-.514-.22h-2.182a.712.712 0 0 1-.425-.14.748.748 0 0 1-.266-.37l-.56-1.74zM8 5.125a3.94 3.94 0 0 1 2.828 1.208A4.191 4.191 0 0 1 12 9.25a4.199 4.199 0 0 1-1.174 2.915A3.947 3.947 0 0 1 8 13.375a3.94 3.94 0 0 1-2.828-1.208A4.191 4.191 0 0 1 4 9.25a4.19 4.19 0 0 1 1.172-2.917A3.94 3.94 0 0 1 8 5.125zm0 1.5c-.675 0-1.323.277-1.8.769a2.667 2.667 0 0 0-.745 1.856c0 .696.268 1.364.745 1.856a2.507 2.507 0 0 0 1.8.769c.675 0 1.323-.277 1.8-.769.477-.492.745-1.16.745-1.856 0-.696-.268-1.364-.745-1.856A2.507 2.507 0 0 0 8 6.625z"/></svg>